<svg xmlns="http://www.w3.org/2000/svg" viewBox="0 0 430.64 512"><defs><style>.cls-1{fill:#0dd680;}</style></defs><title>Asset 2</title><g id="Layer_2" data-name="Layer 2"><g id="Layer_1-2" data-name="Layer 1"><path class="cls-1" d="M427.19,163.09C399.24,258.8,263,227.36,248.9,333.44c-4.49-14,62.39-64.32,57.86-31.67,3.81,59.26-106.12,78-42.07,72,77.05-23.64,47.45-109.36,63.73-103.17C364,354.34,311.24,387,264,431.8c-6.82,50.55,24.17,51.72-44.36,80.2-93.25-19.78-31.4-62.79-56.11-86.57-59.16-40.36-94.78-100.78-55.8-159.72,2,56.92,17.18,110.16,81.18,109.89-109.17-58.31-59.65-131.73-5.51-42.43C162.11,216.15-3.36,256.87.05,134.56,84.29,195.61,97,185,153.09,209,74.87,157.57,31.94,85.22,52,1.08,69.57,32.88,77.2,75.26,107.7,104.19c22.79,37,16.37-57.14,64-58.3-30.46,104.77-17.32,97.64,45.57,168.33,32.69-43.33,73-69.34,55.57-122.23-39.56-100.65,36.38-15.74,37.86,23.69,36.06-26,52.88-74,66.87-115.68,35.48,74.46-33,170.44-102.08,210.41C449.08,157,433.6,99.75,427.19,163.09Z"/></g></g></svg>