<?xml version="1.0" encoding="utf-8"?>
<!-- Generator: Adobe Illustrator 24.0.1, SVG Export Plug-In . SVG Version: 6.00 Build 0)  -->
<svg version="1.1" id="Layer_1" xmlns="http://www.w3.org/2000/svg" xmlns:xlink="http://www.w3.org/1999/xlink" x="0px" y="0px"
	 viewBox="0 0 473.8 98" style="enable-background:new 0 0 473.8 98;" xml:space="preserve">
<style type="text/css">
	.st0{fill:#60F4B8;stroke:#1C1C47;stroke-miterlimit:10;}
	.st1{fill:none;stroke:#1C1C47;stroke-width:2;stroke-miterlimit:10;}
	.st2{fill:#FFFFFF;}
	.st3{font-family:'CenturyGothic-Bold';}
	.st4{font-size:38.2px;}
	.st5{font-family:'CenturyGothic';}
	.st6{font-size:29.29px;}
</style>
<title>Asset 1</title>
<g id="Layer_1-2">
	<path class="st0" d="M21.6,92.8h33.7c1.3,0,2.3,1.1,2.3,2.3v0c0,1.3-1.1,2.3-2.3,2.3H21.6c-1.3,0-2.4-1.1-2.4-2.3v0
		C19.2,93.8,20.3,92.8,21.6,92.8z"/>
	<circle class="st0" cx="66.6" cy="75.8" r="3.3"/>
	<circle class="st0" cx="68.7" cy="39.1" r="3.8"/>
	<circle class="st0" cx="11.2" cy="23" r="4.7"/>
	<path class="st0" d="M62.7,12.9c-2,1.9-4.9,2.4-7.5,1.4c-2.5-0.6-4.5-1.5-5.9,0.8c0,0,0,0.1,0,0.1c2.1,2.6,3.3,5.8,3.3,9.1v33
		c0,2.8-0.8,5.5-2.3,7.8l2,2c0.9,0.9,0.9,2.3,0,3.2L51,71.6c-0.9,0.9-2.3,0.9-3.1,0.1c0,0,0,0-0.1-0.1l-2-2
		c-1.4,0.6-2.8,1.2-4.2,1.6v7.2c0,1-0.8,1.9-1.9,1.9l0,0h-2.6c-1,0-1.9-0.8-1.9-1.9l0,0v-7.2c-1.4-0.4-2.8-0.9-4.2-1.6l-2,2
		c-0.9,0.9-2.3,0.9-3.1,0.1c0,0,0,0-0.1-0.1l-1.3-1.3c-0.9-0.9-0.9-2.3,0-3.2l2-2c-1.5-2.3-2.4-5.1-2.4-7.9v-5
		c0-0.2-0.1-0.3-0.2-0.3c-3-1.3-5,0.3-6.7,2.1c-2.4,4.4-7.8,6-12.2,3.6c-4.4-2.4-6-7.8-3.6-12.2c1.6-2.9,4.7-4.7,8-4.7
		c3.2,0,6.3,1.6,7.6,4.2c1.3,3.8,5.1,3.8,7,3.3c0.1,0,0.2-0.1,0.2-0.2V24.8c-0.1-7.6,5.7-14,13.2-14.7c3.5-0.2,6.9,0.8,9.7,3
		c0.1,0,0.1,0.1,0.2,0.1c2.7,0.1,3-2.8,3.3-5.3l0,0c-0.1-2.3,1-4.6,2.9-5.9c3-2.5,7.5-2.1,10.1,0.9C66.1,5.9,65.7,10.4,62.7,12.9
		L62.7,12.9L62.7,12.9z"/>
	<circle class="st0" cx="6.5" cy="79.1" r="3.3"/>
	<path class="st1" d="M25.6,92.8c0-6.2,2.6-14.1,6.8-22.5"/>
	<path class="st1" d="M51.2,92.8c0-6.2-2.6-14.1-6.8-22.5"/>
	<text transform="matrix(1 0 0 1 94.09 48.3199)" class="st2 st3 st4">Electron Microscope</text>
	<text transform="matrix(1 0 0 1 94.09 83.9)" class="st2 st5 st6">Mansoura University</text>
</g>
</svg>
