<svg xmlns="http://www.w3.org/2000/svg" viewBox="0 0 42.29 42.29"><defs><style>.cls-1{fill:#fff;}.cls-2{fill:#1c1c47;}</style></defs><title>Asset 11</title><g id="Layer_2" data-name="Layer 2"><g id="Layer_1-2" data-name="Layer 1"><circle class="cls-1" cx="21.14" cy="21.14" r="21.14" transform="translate(-6.42 9.56) rotate(-22.21)"/><path class="cls-2" d="M18.69,31.15c-5.44-.1-7.3-.19-8.44-.43a3.66,3.66,0,0,1-1.93-1A4,4,0,0,1,7.4,28,11.54,11.54,0,0,1,7,25.35a59.12,59.12,0,0,1,0-8.42c.17-1.55.26-3.4,1.42-4.47a3.8,3.8,0,0,1,1.9-1,105.91,105.91,0,0,1,10.82-.38A106.16,106.16,0,0,1,32,11.49a3.82,3.82,0,0,1,2.23,1.32c1.06,1.67,1.07,3.74,1.18,5.37,0,.77,0,5.16,0,5.93a13.69,13.69,0,0,1-.68,4.41,3.35,3.35,0,0,1-.78,1.25,3.73,3.73,0,0,1-2,1c-4.7.36-8.7.43-13.24.36Zm7.21-10.3c-2.62-1.4-5.13-2.7-7.69-4v8c2.7-1.47,5.54-2.81,7.7-4Z"/></g></g></svg>