<svg xmlns="http://www.w3.org/2000/svg" viewBox="0 0 42.29 42.29"><defs><style>.cls-1{fill:#fff;}.cls-2{fill:#1c1c47;}</style></defs><title>Asset 7</title><g id="Layer_2" data-name="Layer 2"><g id="Layer_1-2" data-name="Layer 1"><circle class="cls-1" cx="21.14" cy="21.14" r="21.14" transform="translate(-6.42 9.56) rotate(-22.21)"/><path class="cls-2" d="M9.5,12.31l3.07-2.82a.86.86,0,0,1,1.27.11l3.71,4.94a.86.86,0,0,1,.07.9L16.2,18.2a.79.79,0,0,0,.06.81,35.61,35.61,0,0,0,7,7.13.77.77,0,0,0,.8.06l2.72-1.36a.91.91,0,0,1,.93.06l5,3.4a.9.9,0,0,1,.18,1.35l-2.67,3.06a.92.92,0,0,1-.88.3c-2.87-.62-16.5-4.35-20-19.88A.86.86,0,0,1,9.5,12.31Z"/></g></g></svg>