<svg xmlns="http://www.w3.org/2000/svg" viewBox="0 0 42.29 42.29"><defs><style>.cls-1{fill:#fff;}.cls-2{fill:#1c1c47;}</style></defs><title>Asset 10</title><g id="Layer_2" data-name="Layer 2"><g id="Layer_1-2" data-name="Layer 1"><circle class="cls-1" cx="21.14" cy="21.14" r="21.14" transform="translate(-6.42 9.56) rotate(-22.21)"/><path class="cls-2" d="M26.77,10h1.29l.48.1a4.75,4.75,0,0,1,.85.24,6.36,6.36,0,0,1,.75.34c.24.14.45.27.65.41a3.72,3.72,0,0,1,.52.43.74.74,0,0,0,.71.12c.33-.08.67-.18,1-.31a11.55,11.55,0,0,0,1.1-.45l.67-.31c.07,0,.12-.07.12-.08h.18v.07l0,0v.09l0,0a.44.44,0,0,1,0,.1,4.84,4.84,0,0,1-.24.5,6.64,6.64,0,0,1-.55.88,4.89,4.89,0,0,1-.61.68l-.35.32a1.2,1.2,0,0,1-.21.17l-.13.08,0,0h0l0,0h0l.7-.15a12.9,12.9,0,0,0,1.33-.36l.67-.22.07,0h.06l0,0h.15v.05h-.09v0h0l-.32.42a2.38,2.38,0,0,1-.33.42s0,0-.07.07a6.56,6.56,0,0,1-.53.56,12.11,12.11,0,0,1-.95.86,1.18,1.18,0,0,0-.47.93c0,.37,0,.79,0,1.25s-.1,1-.19,1.5a17,17,0,0,1-.42,1.82,15.13,15.13,0,0,1-.7,2,15.72,15.72,0,0,1-.85,1.74c-.3.51-.57.95-.82,1.3s-.5.69-.76,1-.58.67-1,1.06l-.65.64-.48.41c-.29.24-.6.48-.92.71s-.63.43-.9.59-.6.34-1,.54a11.17,11.17,0,0,1-1.25.56c-.44.18-.91.34-1.41.49s-1,.26-1.44.35-1,.15-1.58.21l-.88.08v0H16.25v0H16l-.35,0-1-.14a11.93,11.93,0,0,1-1.4-.25c-.34-.08-.85-.24-1.52-.47a16,16,0,0,1-1.72-.7l-.89-.45L8.73,30l-.23-.13H8.38v-.05h.16c.07,0,.28,0,.61,0a9.19,9.19,0,0,0,1,0,9.12,9.12,0,0,0,1.15-.11c.38-.06.84-.16,1.37-.3a10.39,10.39,0,0,0,1.46-.5c.44-.19.76-.34,1-.44s.46-.27.85-.52l.57-.39h.1v-.05h-.19l-.38,0a3.49,3.49,0,0,1-.59-.11,6.25,6.25,0,0,1-.85-.3,6.42,6.42,0,0,1-.9-.47,3.71,3.71,0,0,1-.62-.45c-.13-.12-.3-.29-.5-.51a4.95,4.95,0,0,1-1-1.48l-.21-.45v0l0,0v0h.08l.27,0a5.06,5.06,0,0,0,.86,0c.39,0,.65,0,.8-.05l.28-.05h0l.06,0h0l0,0h-.15l-.18-.05L12.82,23a4.9,4.9,0,0,1-.87-.46,5.69,5.69,0,0,1-.61-.49,4.93,4.93,0,0,1-.64-.69,4.69,4.69,0,0,1-.62-1,5.89,5.89,0,0,1-.41-1.06,6.18,6.18,0,0,1-.18-1l0-.52h.12l0,0L10,18a4.55,4.55,0,0,0,1,.3l.68.14h.26l0,0h0l0,0h0l-.21-.16a4,4,0,0,1-.43-.41l-.44-.52a4.6,4.6,0,0,1-.4-.58,6.7,6.7,0,0,1-.37-.79,7,7,0,0,1-.29-1,6.27,6.27,0,0,1-.11-1,4.9,4.9,0,0,1,0-.8,5,5,0,0,1,.14-.76,7.19,7.19,0,0,1,.33-.9l.21-.47V11h.08v.05h0l.34.37c.22.25.49.52.79.83a6.91,6.91,0,0,0,.51.48.3.3,0,0,1,.13.11,4.77,4.77,0,0,0,.49.44c.29.23.65.5,1.11.81s1,.6,1.51.9a14.69,14.69,0,0,0,1.79.81c.64.24,1.08.4,1.34.47s.7.17,1.32.29,1.08.19,1.4.22l.64.06h.18v-.07l0-.31a5.07,5.07,0,0,1-.05-.87,6.53,6.53,0,0,1,.08-1,6.84,6.84,0,0,1,.26-1,5.39,5.39,0,0,1,.34-.77,7.15,7.15,0,0,1,.45-.67,5.3,5.3,0,0,1,.7-.77,4.94,4.94,0,0,1,1-.7,6.18,6.18,0,0,1,1-.48,6.83,6.83,0,0,1,.79-.21Z"/></g></g></svg>