<svg xmlns="http://www.w3.org/2000/svg" viewBox="0 0 62.94 62.94"><defs><style>.cls-1{fill:#1c1c47;}.cls-2{fill:#f4f4f4;}</style></defs><title>Asset 3</title><g id="Layer_2" data-name="Layer 2"><g id="Layer_1-2" data-name="Layer 1"><circle class="cls-1" cx="31.47" cy="31.47" r="31.47" transform="translate(-9.56 14.23) rotate(-22.21)"/><path class="cls-2" d="M39.85,14.83h1.92l.71.14a7.31,7.31,0,0,1,1.27.36,9.26,9.26,0,0,1,1.11.51c.36.2.68.4,1,.6a6.4,6.4,0,0,1,.78.65,1.07,1.07,0,0,0,1.06.18c.48-.12,1-.27,1.55-.47s1.1-.42,1.64-.66.88-.4,1-.47l.19-.11h0l0,0,0,0,0,0,0,0h.11v.11l0,.05,0,.06,0,0,0,0,0,.06a1.3,1.3,0,0,0,0,.15c0,.06-.13.3-.35.74A9.87,9.87,0,0,1,51,18a6.29,6.29,0,0,1-.89,1c-.27.23-.44.39-.53.48a1.34,1.34,0,0,1-.31.26l-.19.12,0,0,0,0h0l0,0h0v0H49l1-.22a19.07,19.07,0,0,0,2-.54l1-.33.11,0,0,0,0,0h0l0,0,0,0h.15v.07h-.13l0,0,0,0h0l-.47.62a4,4,0,0,1-.5.63.37.37,0,0,0-.1.11,9.17,9.17,0,0,1-.78.83A17.77,17.77,0,0,1,50,22.52a1.76,1.76,0,0,0-.71,1.39c0,.55,0,1.16-.08,1.85A22.43,22.43,0,0,1,48.94,28a23.27,23.27,0,0,1-.63,2.71,23.55,23.55,0,0,1-1,3A23.16,23.16,0,0,1,46,36.26c-.44.76-.85,1.41-1.22,1.94s-.74,1-1.12,1.49-.87,1-1.45,1.59-.91.9-1,1l-.73.6c-.42.35-.87.71-1.36,1.06a14.86,14.86,0,0,1-1.34.87q-.62.36-1.47.81a17.89,17.89,0,0,1-1.86.84q-1,.39-2.1.72c-.74.22-1.46.39-2.14.52s-1.48.22-2.35.31l-1.31.13v0h-2.4v0l-.32,0-.52,0-1.53-.2c-.89-.12-1.58-.25-2.09-.37s-1.25-.36-2.25-.7a21.3,21.3,0,0,1-2.56-1.05l-1.33-.66c-.18-.09-.38-.21-.6-.34l-.33-.2v0h0l0,0,0,0h0v0h0v-.08h.08l.16,0,.91,0a13.69,13.69,0,0,0,1.57,0c.55,0,1.12-.08,1.7-.16s1.26-.24,2.05-.44a14.89,14.89,0,0,0,2.17-.75c.66-.29,1.13-.51,1.41-.65s.69-.4,1.26-.78l.85-.58h0v0h.11v-.07h0l-.29,0-.57,0a6,6,0,0,1-.87-.16,8.24,8.24,0,0,1-1.28-.45,9.41,9.41,0,0,1-1.33-.7,6.26,6.26,0,0,1-.93-.68c-.19-.17-.44-.42-.74-.75a8.14,8.14,0,0,1-.79-1,8.73,8.73,0,0,1-.63-1.19l-.31-.67,0-.06v-.05l0,0v0h.11l.4.06a11.27,11.27,0,0,0,1.28,0A9,9,0,0,0,20,35a4.08,4.08,0,0,0,.41-.08h.07l.09,0,.1,0h0l-.07,0-.08,0h-.07l-.07,0-.08,0-.26-.07-1-.41a7.28,7.28,0,0,1-1.3-.68,10.77,10.77,0,0,1-.91-.73,10,10,0,0,1-.95-1A7,7,0,0,1,15,30.4a9,9,0,0,1-.61-1.59,8.74,8.74,0,0,1-.26-1.53l-.07-.78h.07l0,0,0,0,0,0,0,0,.58.25a7,7,0,0,0,1.42.45c.56.12.9.19,1,.2l.17,0h.27v0h0l0,0h0l0,0,0,0h0l-.32-.23a5.84,5.84,0,0,1-.64-.61c-.22-.24-.44-.5-.66-.77a5.78,5.78,0,0,1-.59-.87,8.94,8.94,0,0,1-.55-1.18,8.1,8.1,0,0,1-.43-1.43,7.75,7.75,0,0,1-.17-1.42,8.74,8.74,0,0,1,0-1.2,8.55,8.55,0,0,1,.22-1.13,9,9,0,0,1,.48-1.33l.31-.7,0-.05,0-.06h.11l0,0,0,0h0l.5.56c.33.36.72.78,1.18,1.23a6,6,0,0,0,.76.71.54.54,0,0,1,.18.17,9.1,9.1,0,0,0,.74.66c.42.34,1,.74,1.64,1.2s1.43.9,2.26,1.35a22.47,22.47,0,0,0,2.66,1.2c.95.35,1.61.59,2,.7s1,.25,2,.42,1.62.29,2.09.34.79.07,1,.08h.26V25l-.07-.46a8.5,8.5,0,0,1-.08-1.3,9.09,9.09,0,0,1,.13-1.53A9.71,9.71,0,0,1,33,20.28a6.94,6.94,0,0,1,.51-1.16,9.68,9.68,0,0,1,.65-1A8.39,8.39,0,0,1,35.18,17a7,7,0,0,1,1.48-1,9.25,9.25,0,0,1,1.53-.71,7.2,7.2,0,0,1,1.18-.31Z"/></g></g></svg>