<svg xmlns="http://www.w3.org/2000/svg" viewBox="0 0 62.94 62.94"><defs><style>.cls-1{fill:#1c1c47;}.cls-2{fill:#f4f4f4;}</style></defs><title>Asset 4</title><g id="Layer_2" data-name="Layer 2"><g id="Layer_1-2" data-name="Layer 1"><circle class="cls-1" cx="31.47" cy="31.47" r="31.47" transform="translate(-9.56 14.23) rotate(-22.21)"/><path class="cls-2" d="M27.82,46.37c-8.09-.15-10.86-.29-12.56-.64a5.48,5.48,0,0,1-2.88-1.5A6,6,0,0,1,11,41.6a16.84,16.84,0,0,1-.58-3.86,90.29,90.29,0,0,1,0-12.53c.26-2.32.38-5.07,2.11-6.67a5.7,5.7,0,0,1,2.84-1.43,154.78,154.78,0,0,1,16.11-.57,155.22,155.22,0,0,1,16.11.57,5.6,5.6,0,0,1,3.32,2c1.57,2.49,1.6,5.57,1.76,8,.07,1.15.07,7.68,0,8.83-.25,3.81-.45,5.16-1,6.56a5,5,0,0,1-1.17,1.87,5.61,5.61,0,0,1-3,1.51c-7,.53-13,.64-19.71.54ZM38.55,31c-3.9-2.09-7.63-4-11.44-6V37c4-2.19,8.24-4.19,11.46-6l0,0Z"/></g></g></svg>