<svg xmlns="http://www.w3.org/2000/svg" viewBox="0 0 473.8 97.96"><defs><style>.cls-1{fill:#60f4b8;}.cls-1,.cls-2{stroke:#1c1c47;stroke-miterlimit:10;}.cls-2{fill:none;stroke-width:2px;}.cls-3{font-size:38.2px;font-family:CenturyGothic-Bold, Century Gothic;font-weight:700;}.cls-3,.cls-4{fill:#1c1c47;}.cls-4{font-size:29.29px;font-family:CenturyGothic, Century Gothic;}</style></defs><title>Asset 1</title><g id="Layer_2" data-name="Layer 2"><g id="Layer_1-2" data-name="Layer 1"><rect class="cls-1" x="19.22" y="92.75" width="38.39" height="4.71" rx="2.35"/><circle class="cls-1" cx="66.56" cy="75.8" r="3.3"/><circle class="cls-1" cx="68.68" cy="39.06" r="3.77"/><circle class="cls-1" cx="11.22" cy="23.04" r="4.71"/><path class="cls-1" d="M62.65,12.89A7.15,7.15,0,0,1,55.2,14.3c-2.46-.59-4.51-1.47-5.87.76a.14.14,0,0,0,0,.15,14.12,14.12,0,0,1,3.32,9.12v33a14.24,14.24,0,0,1-2.33,7.82l2,2a2.27,2.27,0,0,1,0,3.2L51,71.61a2.22,2.22,0,0,1-3.19,0l-2-2a26.79,26.79,0,0,1-4.23,1.58V78.4a1.87,1.87,0,0,1-1.87,1.87H37.11a1.87,1.87,0,0,1-1.87-1.87V71.19a26.07,26.07,0,0,1-4.17-1.58l-2,2a2.22,2.22,0,0,1-3.19,0l-1.3-1.29a2.27,2.27,0,0,1,0-3.2l2-2a14.18,14.18,0,0,1-2.36-7.86v-5a.38.38,0,0,0-.23-.35c-3-1.33-5,.29-6.66,2.14a9,9,0,1,1-7.83-13.3c3.19,0,6.33,1.62,7.57,4.18,1.31,3.81,5.13,3.81,7,3.28.11,0,.2-.06.2-.17V24.76A14.53,14.53,0,0,1,37.51,10.11a14.2,14.2,0,0,1,9.69,3,.34.34,0,0,0,.19.07c2.73.05,3-2.8,3.27-5.32v0a7.06,7.06,0,0,1,2.88-5.95,7.14,7.14,0,0,1,9.11,11Z"/><circle class="cls-1" cx="6.51" cy="79.09" r="3.3"/><path class="cls-2" d="M25.6,92.75c0-6.24,2.63-14.1,6.78-22.53"/><path class="cls-2" d="M51.22,92.75c0-6.24-2.63-14.1-6.78-22.53"/><text class="cls-3" transform="translate(94.09 48.32)">Electron Microscope</text><text class="cls-4" transform="translate(94.09 83.9)">Mansoura University</text></g></g></svg>